<svg width="117" height="130" viewBox="0 0 117 130" fill="none" xmlns="http://www.w3.org/2000/svg">
<path d="M57.8415 0C63.3643 0 67.8415 4.47715 67.8415 10V47.3047L100.264 28.5859C105.047 25.8245 111.163 27.4632 113.924 32.2461L114.325 32.9385C117.086 37.7213 115.448 43.8381 110.665 46.5996L67.8415 71.3232V120C67.8415 125.523 63.3643 130 57.8415 130H57.0417C51.5188 130 47.0417 125.523 47.0417 120V83.332L15.4011 101.6C10.6182 104.361 4.50223 102.721 1.74091 97.9385L1.34149 97.2461C-1.41993 92.4632 0.218722 86.3474 5.00165 83.5859L37.4509 64.8506L5.51825 46.4141C0.735324 43.6526 -0.90333 37.5368 1.85809 32.7539L2.25751 32.0605C5.01898 27.2778 11.1358 25.639 15.9186 28.4004L47.0417 46.3691V10C47.0417 4.47715 51.5188 0 57.0417 0H57.8415ZM81.0661 77.5615C83.8275 72.7787 89.9434 71.1393 94.7263 73.9004L111.181 83.4004C115.964 86.1618 117.603 92.2786 114.841 97.0615L114.441 97.7539C111.68 102.537 105.564 104.175 100.781 101.414L84.3268 91.9141C79.5439 89.1526 77.9053 83.0368 80.6667 78.2539L81.0661 77.5615Z" fill="white"/>
</svg>
