<svg width="119" height="32" viewBox="0 0 119 32" fill="none" xmlns="http://www.w3.org/2000/svg">
<path d="M14.8847 1C15.9087 1 16.7387 1.83425 16.7387 2.86335V11.9165L24.5662 7.37453C25.4529 6.86001 26.5868 7.16535 27.0988 8.05654L27.6327 8.98604C28.1447 9.87725 27.8408 11.0168 26.9541 11.5314L16.7387 17.459V29.1366C16.7387 30.1657 15.9087 31 14.8847 31H13.8169C12.793 31 11.9629 30.1657 11.9629 29.1366V20.2302L4.3152 24.6681C3.42845 25.1826 2.29459 24.8773 1.78263 23.986L1.2487 23.0565C0.736737 22.1653 1.04054 21.0257 1.92729 20.5112L9.76057 15.9654L2.04588 11.4888C1.15914 10.9743 0.855355 9.83468 1.36729 8.94346L1.90122 8.01396C2.41318 7.12273 3.54704 6.8174 4.43379 7.33195L11.9629 11.7006V2.86335C11.9629 1.83425 12.793 1 13.8169 1H14.8847Z" fill="#004FFF"/>
<path d="M19.9962 18.5139C20.5082 17.6227 21.6422 17.3173 22.529 17.8319L27.0727 20.4686C27.9595 20.9831 28.2633 22.1227 27.7513 23.014L27.2174 23.9435C26.7054 24.8346 25.5715 25.14 24.6848 24.6255L20.1409 21.9888C19.2542 21.4742 18.9504 20.3346 19.4623 19.4434L19.9962 18.5139Z" fill="#004FFF"/>
<path d="M56.5072 24.6867H52.4637L50.8563 20.5132H43.4976L41.9781 24.6867H38.035L45.2054 6.31332H47.9676C48.6734 6.31332 49.3081 6.74259 49.5709 7.39752L56.5072 24.6867ZM49.6633 17.4175L47.1267 10.5996L44.6403 17.4175H49.6633Z" fill="#2F3133"/>
<path d="M57.6289 24.6867V6.31332H60.279C60.8795 6.31332 61.4369 6.62514 61.7511 7.13682L68.78 18.5831V6.31332H70.5058C71.4599 6.31332 72.2333 7.08665 72.2333 8.0406V24.6867H68.5037L61.0822 12.7051V24.6867H57.6289Z" fill="#2F3133"/>
<path d="M74.5228 15.6128C74.5228 13.7412 74.8033 12.1704 75.3642 10.9004C75.7828 9.9646 76.352 9.12489 77.072 8.38127C77.8003 7.63764 78.5957 7.08619 79.4579 6.72691C80.6049 6.2423 81.9276 6 83.4261 6C86.1386 6 88.3068 6.83971 89.9309 8.51913C91.5634 10.1985 92.3797 12.5339 92.3797 15.5251C92.3797 18.4912 91.5718 20.814 89.9561 22.4934C88.3403 24.1645 86.1804 25 83.4764 25C80.7388 25 78.5622 24.1686 76.9464 22.5059C75.3307 20.8349 74.5228 18.5372 74.5228 15.6128ZM78.3529 15.4875C78.3529 17.5679 78.8342 19.1471 79.797 20.2249C80.7597 21.2944 81.982 21.8292 83.4638 21.8292C84.9456 21.8292 86.1595 21.2986 87.1055 20.2375C88.0599 19.168 88.5371 17.5679 88.5371 15.4373C88.5371 13.3318 88.0724 11.761 87.1432 10.7249C86.2223 9.68887 84.9958 9.17084 83.4638 9.17084C81.9318 9.17084 80.697 9.69723 79.7593 10.75C78.8217 11.7944 78.3529 13.3736 78.3529 15.4875Z" fill="#2F3133"/>
<path d="M94.4306 24.6867V6.31332H97.0807C97.6812 6.31332 98.2386 6.62514 98.5528 7.13682L105.582 18.5831V6.31332H107.308C108.262 6.31332 109.035 7.08665 109.035 8.0406V24.6867H105.305L97.8839 12.7051V24.6867H94.4306Z" fill="#2F3133"/>
</svg>
